<?xml version="1.0" encoding="UTF-8"?>
<svg id="Layer_1" data-name="Layer 1" xmlns="http://www.w3.org/2000/svg" viewBox="0 0 881.4 307.4">
  <defs>
    <style>
      .cls-1, .cls-2, .cls-3, .cls-4 {
        fill: none;
      }

      .cls-1, .cls-5 {
        stroke-width: 0px;
      }

      .cls-2 {
        stroke: red;
      }

      .cls-2, .cls-3 {
        stroke-width: .4px;
      }

      .cls-2, .cls-3, .cls-4 {
        stroke-miterlimit: 10;
      }

      .cls-3 {
        stroke: #ff0400;
      }

      .cls-4 {
        stroke: blue;
      }

      .cls-5 {
        fill: blue;
      }
    </style>
  </defs>
  <g id="Cut">
    <rect class="cls-2" x=".2" y=".2" width="881" height="307"/>
    <rect class="cls-2" x="116.68" y="29.45" width="638.48" height="82.75"/>
    <rect class="cls-2" x="412.2" y="237.2" width="47.06" height="47.06"/>
    <rect class="cls-2" x="381.17" y="175.6" width="47.06" height="47.06"/>
    <rect class="cls-2" x="445.17" y="175.6" width="47.06" height="47.06"/>
    <ellipse class="cls-2" cx="175.96" cy="175.36" rx="29.76" ry="30.16"/>
    <ellipse class="cls-3" cx="293.7" cy="175.12" rx="29.76" ry="30.16"/>
    <ellipse class="cls-2" cx="562.7" cy="175.12" rx="29.76" ry="30.16"/>
    <ellipse class="cls-2" cx="725.7" cy="174.12" rx="29.76" ry="30.16"/>
    <circle class="cls-2" cx="94.08" cy="145.08" r="14.88"/>
    <circle class="cls-2" cx="436.24" cy="146.18" r="14.88"/>
    <circle class="cls-2" cx="644.24" cy="146.18" r="14.88"/>
    <rect class="cls-2" x="270.18" y="250.2" width="47.06" height="34.75"/>
    <rect class="cls-2" x="539.18" y="250.05" width="47.06" height="34.75"/>
    <rect class="cls-2" x="702.18" y="250.05" width="47.06" height="34.75"/>
  </g>
  <g id="Engrave">
    <circle class="cls-4" cx="94.08" cy="145.08" r="15.59"/>
    <g>
      <path class="cls-5" d="m89,173.8c0,.52-.13.99-.4,1.4s-.66.74-1.17.97-1.13.35-1.83.35c-.85,0-1.55-.16-2.1-.48-.39-.23-.71-.54-.95-.92s-.37-.76-.37-1.12c0-.21.07-.39.22-.54s.33-.23.56-.23c.18,0,.34.06.47.18s.24.29.33.52c.11.27.23.5.35.69s.31.33.54.45.53.18.91.18c.52,0,.93-.12,1.26-.36s.48-.54.48-.9c0-.29-.09-.52-.26-.69s-.4-.31-.67-.41-.64-.19-1.1-.3c-.62-.14-1.13-.31-1.55-.51s-.75-.46-.99-.79-.37-.75-.37-1.25.13-.89.39-1.26.63-.65,1.12-.85,1.06-.3,1.72-.3c.53,0,.98.07,1.37.2s.7.3.96.52.44.44.56.68.18.47.18.7c0,.21-.07.39-.22.56s-.33.25-.55.25c-.2,0-.35-.05-.45-.15s-.22-.26-.34-.49c-.16-.32-.34-.58-.56-.76s-.57-.27-1.05-.27c-.45,0-.81.1-1.09.3s-.41.43-.41.71c0,.17.05.32.14.45s.22.23.39.32.33.16.5.21.45.12.83.22c.48.11.92.24,1.32.38s.73.3,1,.5.49.44.64.74.23.67.23,1.1h-.04Z"/>
      <path class="cls-5" d="m93.81,173.04h-1.59v2.43c0,.35-.08.61-.25.79s-.37.27-.62.27-.47-.09-.63-.27-.24-.44-.24-.78v-6.62c0-.38.09-.66.26-.82s.46-.25.84-.25h2.23c.66,0,1.17.05,1.52.15.35.1.66.26.91.49s.45.5.58.83.2.7.2,1.11c0,.88-.27,1.54-.81,1.99s-1.34.68-2.41.68h0Zm-.42-3.94h-1.17v2.62h1.17c.41,0,.75-.04,1.03-.13s.49-.23.63-.42.22-.45.22-.77c0-.38-.11-.69-.33-.93-.25-.25-.76-.38-1.54-.38h0Z"/>
      <path class="cls-5" d="m99.56,167.79h2.27c.59,0,1.1.05,1.52.16s.8.31,1.15.62c.89.77,1.34,1.93,1.34,3.49,0,.52-.04.99-.13,1.41s-.23.81-.42,1.15-.43.65-.72.92c-.23.21-.48.37-.76.5s-.57.21-.88.26-.67.08-1.06.08h-2.27c-.32,0-.55-.05-.71-.14s-.26-.23-.31-.4-.07-.4-.07-.68v-6.3c0-.38.08-.65.25-.81s.44-.25.81-.25h-.01Zm.67,1.38v5.83h1.32c.29,0,.52,0,.68-.02s.33-.05.51-.12.33-.15.46-.26c.58-.49.87-1.34.87-2.54,0-.85-.13-1.48-.38-1.9s-.57-.69-.95-.81-.83-.17-1.36-.17h-1.15Z"/>
      <path class="cls-5" d="m79.66,189.49l-1.38-5.47v5.93c0,.33-.07.57-.22.74s-.34.25-.58.25-.43-.08-.57-.24-.22-.41-.22-.74v-6.8c0-.38.1-.63.29-.76s.46-.2.79-.2h.54c.32,0,.56.03.71.09s.25.16.33.32.15.4.24.74l1.25,4.71,1.25-4.71c.09-.34.17-.59.24-.74s.18-.26.33-.32.38-.09.71-.09h.54c.33,0,.6.07.79.2s.29.38.29.76v6.8c0,.33-.07.57-.22.74s-.34.25-.59.25c-.23,0-.42-.08-.57-.25s-.22-.41-.22-.74v-5.93l-1.38,5.47c-.09.36-.16.62-.22.78s-.16.32-.31.45-.36.21-.63.21c-.2,0-.38-.04-.52-.13s-.25-.2-.33-.34-.14-.29-.18-.45-.09-.34-.14-.52h-.02Z"/>
      <path class="cls-5" d="m92.25,189.81l-.41-1.08h-3.49l-.41,1.1c-.16.43-.3.72-.41.87s-.3.23-.56.23c-.22,0-.41-.08-.58-.24s-.25-.34-.25-.54c0-.12.02-.24.06-.36s.1-.3.19-.52l2.2-5.58c.06-.16.14-.35.23-.58s.18-.41.28-.56.23-.27.39-.36.36-.14.6-.14.44.05.61.14.29.21.39.35.18.3.25.47.16.39.26.67l2.24,5.54c.18.42.26.73.26.92s-.08.38-.25.55-.37.25-.6.25c-.14,0-.25-.02-.35-.07s-.18-.12-.25-.2-.14-.21-.21-.39-.14-.33-.2-.46h.01Zm-3.45-2.38h2.57l-1.29-3.54-1.27,3.54h-.01Z"/>
      <path class="cls-5" d="m102.4,188.07c0,.27-.07.57-.2.89s-.35.63-.64.94-.66.56-1.11.75-.97.29-1.57.29c-.45,0-.87-.04-1.24-.13s-.71-.22-1.01-.4-.58-.42-.83-.72c-.23-.27-.42-.57-.58-.91s-.28-.69-.36-1.07-.12-.78-.12-1.21c0-.69.1-1.31.3-1.86s.49-1.01.86-1.4.81-.68,1.32-.89,1.04-.3,1.61-.3c.7,0,1.31.14,1.86.42s.96.62,1.25,1.03.43.79.43,1.16c0,.2-.07.38-.21.53s-.31.23-.51.23c-.22,0-.39-.05-.5-.16s-.24-.29-.37-.54c-.23-.43-.49-.74-.8-.96s-.68-.32-1.13-.32c-.71,0-1.28.27-1.71.81s-.64,1.31-.64,2.31c0,.67.09,1.22.28,1.67s.45.77.8.99.75.33,1.21.33c.5,0,.92-.12,1.27-.37s.61-.61.78-1.09c.07-.23.17-.41.28-.55s.29-.21.53-.21c.21,0,.38.07.53.22s.22.32.22.54v-.02h0Z"/>
      <path class="cls-5" d="m105.72,183.1v2.46h3.76v-2.46c0-.35.08-.62.24-.79s.37-.26.62-.26.47.09.64.26.24.44.24.79v6.77c0,.36-.08.62-.25.8s-.38.26-.63.26-.47-.09-.63-.27-.23-.44-.23-.79v-2.89h-3.76v2.89c0,.36-.08.62-.25.8s-.38.26-.63.26-.47-.09-.63-.27-.23-.44-.23-.79v-6.77c0-.35.08-.62.23-.79s.36-.26.63-.26.47.09.64.26.24.44.24.79Z"/>
    </g>
    <rect class="cls-5" x="364.7" y="131.7" width="3" height="157"/>
    <rect class="cls-5" x="508.7" y="131.7" width="3" height="157"/>
    <g>
      <path class="cls-5" d="m623.41,174.22l-1.38-5.47v5.93c0,.33-.07.57-.22.74s-.34.25-.58.25-.43-.08-.57-.24-.22-.41-.22-.74v-6.8c0-.38.1-.63.29-.76s.46-.2.79-.2h.54c.32,0,.56.03.71.09s.25.16.33.32.15.4.24.74l1.25,4.71,1.25-4.71c.09-.34.17-.59.24-.74s.18-.26.33-.32.38-.09.71-.09h.54c.33,0,.6.07.79.2s.29.38.29.76v6.8c0,.33-.07.57-.22.74s-.34.25-.59.25c-.23,0-.42-.08-.57-.25s-.22-.41-.22-.74v-5.93l-1.38,5.47c-.09.36-.16.62-.22.78s-.16.32-.31.45-.36.21-.63.21c-.2,0-.38-.04-.52-.13s-.25-.2-.33-.34-.14-.29-.18-.45-.09-.34-.14-.52h-.02,0Z"/>
      <path class="cls-5" d="m636.17,168.27h-3.92v2.11h3.61c.27,0,.46.06.59.18s.2.28.2.47-.06.35-.19.48-.33.18-.6.18h-3.61v2.44h4.05c.27,0,.48.06.62.19s.21.3.21.51-.07.37-.21.5-.34.19-.62.19h-4.73c-.38,0-.65-.08-.82-.25s-.25-.44-.25-.81v-6.46c0-.25.04-.45.11-.61s.19-.27.35-.35.36-.11.61-.11h4.59c.28,0,.48.06.62.18s.2.28.2.48-.07.37-.2.49-.34.18-.62.18h0Z"/>
      <path class="cls-5" d="m644.09,168.36h-1.9v6.24c0,.36-.08.63-.24.8s-.37.26-.62.26-.47-.09-.63-.26-.24-.44-.24-.8v-6.24h-1.9c-.3,0-.52-.07-.66-.2s-.22-.3-.22-.52.08-.4.23-.53.37-.19.65-.19h5.53c.3,0,.52.07.67.2s.22.31.22.52-.07.39-.22.52-.37.2-.67.2h0Z"/>
      <path class="cls-5" d="m648.35,171.84h-.61v2.76c0,.36-.08.63-.24.8s-.37.26-.63.26c-.28,0-.49-.09-.64-.27s-.23-.44-.23-.79v-6.61c0-.38.08-.65.25-.81s.44-.25.81-.25h2.83c.39,0,.72.02,1,.05s.53.1.75.2c.27.11.51.28.71.49s.36.46.47.74.16.58.16.89c0,.64-.18,1.15-.54,1.54s-.91.65-1.64.81c.31.16.6.41.88.73s.53.66.75,1.02.39.69.52.98.18.49.18.6-.04.23-.11.34-.17.2-.3.26-.27.1-.43.1c-.2,0-.36-.05-.49-.14s-.25-.21-.34-.35-.23-.35-.39-.62l-.7-1.16c-.25-.43-.47-.75-.67-.97s-.4-.38-.6-.46-.46-.12-.77-.12l.02-.02h0Zm1-3.61h-1.61v2.36h1.56c.42,0,.77-.04,1.05-.11s.5-.2.65-.37.23-.41.23-.72c0-.24-.06-.45-.18-.63s-.29-.32-.5-.41c-.2-.09-.6-.13-1.2-.13h0Z"/>
      <path class="cls-5" d="m654.71,174.6v-6.77c0-.35.08-.62.24-.79s.37-.26.62-.26.47.09.64.26.24.44.24.79v6.77c0,.36-.08.62-.24.8s-.37.26-.64.26-.46-.09-.62-.27-.24-.44-.24-.79Z"/>
      <path class="cls-5" d="m665.72,172.8c0,.27-.07.57-.2.89s-.35.63-.64.94-.66.56-1.11.75-.97.29-1.57.29c-.45,0-.87-.04-1.24-.13s-.71-.22-1.01-.4-.58-.42-.83-.72c-.23-.27-.42-.57-.58-.91s-.28-.69-.36-1.07-.12-.78-.12-1.21c0-.69.1-1.31.3-1.86s.49-1.01.86-1.4.81-.68,1.32-.89,1.04-.3,1.61-.3c.7,0,1.31.14,1.86.42s.96.62,1.25,1.03.43.79.43,1.16c0,.2-.07.38-.21.53s-.31.23-.51.23c-.22,0-.39-.05-.5-.16s-.24-.29-.37-.54c-.23-.43-.49-.74-.8-.96s-.68-.32-1.13-.32c-.71,0-1.28.27-1.71.81s-.64,1.31-.64,2.31c0,.67.09,1.22.28,1.67s.45.77.8.99.75.33,1.21.33c.5,0,.92-.12,1.27-.37s.61-.61.78-1.09c.07-.23.17-.41.28-.55s.29-.21.53-.21c.21,0,.38.07.53.22s.22.32.22.54v-.02h0Z"/>
      <path class="cls-5" d="m638.45,188.94l-.41-1.08h-3.49l-.41,1.1c-.16.43-.3.72-.41.87s-.3.23-.56.23c-.22,0-.41-.08-.58-.24s-.25-.34-.25-.54c0-.12.02-.24.06-.36s.1-.3.19-.52l2.2-5.58c.06-.16.14-.35.23-.58s.18-.41.28-.56.23-.27.39-.36.36-.14.6-.14.44.05.61.14.29.21.39.35.18.3.25.47.16.39.26.67l2.24,5.54c.18.42.26.73.26.92s-.08.38-.25.55-.37.25-.6.25c-.14,0-.25-.02-.35-.07s-.18-.12-.25-.2-.14-.21-.21-.39-.14-.33-.2-.46h0Zm-3.45-2.38h2.57l-1.29-3.54-1.27,3.54h-.01Z"/>
      <path class="cls-5" d="m643.29,182.23v6.25h3.53c.28,0,.5.07.65.21s.23.31.23.52-.07.38-.22.51-.37.2-.65.2h-4.2c-.38,0-.65-.08-.82-.25s-.25-.44-.25-.81v-6.62c0-.35.08-.62.24-.79s.37-.26.62-.26.47.09.64.26.24.44.24.79h-.01Z"/>
      <path class="cls-5" d="m652.91,182.76h-1.9v6.24c0,.36-.08.63-.24.8s-.37.26-.62.26-.47-.09-.63-.26-.24-.44-.24-.8v-6.24h-1.9c-.3,0-.52-.07-.66-.2s-.22-.3-.22-.52.08-.4.23-.53.37-.19.65-.19h5.53c.3,0,.52.07.67.2s.22.31.22.52-.07.39-.22.52-.37.2-.67.2h0Z"/>
    </g>
    <g>
      <path class="cls-5" d="m393.38,136.53v2.46h3.76v-2.46c0-.35.08-.62.24-.79s.37-.26.62-.26.47.09.64.26.24.44.24.79v6.77c0,.36-.08.62-.25.8s-.38.26-.63.26-.47-.09-.63-.27-.23-.44-.23-.79v-2.89h-3.76v2.89c0,.36-.08.62-.25.8s-.38.26-.63.26-.47-.09-.63-.27-.23-.44-.23-.79v-6.77c0-.35.08-.62.23-.79s.36-.26.63-.26.47.09.64.26.24.44.24.79h0Z"/>
      <path class="cls-5" d="m401.83,135.62h2.27c.59,0,1.1.05,1.52.16s.8.31,1.15.62c.89.77,1.34,1.93,1.34,3.49,0,.52-.04.99-.13,1.41s-.23.81-.42,1.15-.43.65-.72.92c-.23.21-.48.37-.76.5s-.57.21-.88.26-.67.08-1.06.08h-2.27c-.32,0-.55-.05-.71-.14s-.26-.23-.31-.4-.07-.4-.07-.68v-6.3c0-.38.08-.65.25-.81s.44-.25.81-.25h0Zm.67,1.38v5.83h1.32c.29,0,.52,0,.68-.02s.33-.05.51-.12.33-.15.46-.26c.58-.49.87-1.34.87-2.54,0-.85-.13-1.48-.38-1.9s-.57-.69-.95-.81-.83-.17-1.36-.17h-1.15Z"/>
      <path class="cls-5" d="m417.48,140.72v1.65c0,.22-.02.39-.06.52s-.12.25-.24.35-.26.21-.44.3c-.52.28-1.02.49-1.5.62s-1,.19-1.57.19c-.66,0-1.26-.1-1.8-.3s-1.01-.5-1.39-.88-.68-.86-.88-1.41-.31-1.17-.31-1.85.1-1.28.3-1.83.49-1.03.88-1.41.86-.68,1.41-.89,1.18-.31,1.89-.31c.58,0,1.09.08,1.54.23s.81.35,1.08.58.49.48.63.74.21.49.21.7-.08.41-.24.56-.36.23-.58.23c-.12,0-.25-.03-.36-.09s-.21-.14-.29-.25c-.21-.34-.4-.59-.54-.76s-.35-.32-.6-.43-.57-.18-.96-.18-.76.07-1.08.21-.59.34-.81.6-.4.59-.52.97-.18.81-.18,1.27c0,1.01.23,1.78.69,2.33s1.11.81,1.94.81c.4,0,.78-.05,1.13-.16s.71-.26,1.08-.45v-1.39h-1.35c-.32,0-.57-.05-.74-.15s-.25-.26-.25-.5c0-.19.07-.35.21-.47s.33-.19.57-.19h1.97c.24,0,.45.02.62.06s.3.14.41.29.16.37.16.67l-.03.02h0Z"/>
      <path class="cls-5" d="m398.45,151.46h-1.9v6.24c0,.36-.08.63-.24.8s-.37.26-.62.26-.47-.09-.63-.26-.24-.44-.24-.8v-6.24h-1.9c-.3,0-.52-.07-.66-.2s-.22-.3-.22-.52.08-.4.23-.53.37-.19.65-.19h5.53c.3,0,.52.07.67.2s.22.31.22.52-.07.39-.22.52-.37.2-.67.2h0Z"/>
      <path class="cls-5" d="m402.71,154.94h-.61v2.76c0,.36-.08.63-.24.8s-.37.26-.63.26c-.28,0-.49-.09-.64-.27s-.23-.44-.23-.79v-6.61c0-.38.08-.65.25-.81s.44-.25.81-.25h2.83c.39,0,.72.02,1,.05s.53.1.75.2c.27.11.51.28.71.49s.36.46.47.74.16.58.16.89c0,.64-.18,1.15-.54,1.54s-.91.65-1.64.81c.31.16.6.41.88.73s.53.66.75,1.02.39.69.52.98.18.49.18.6-.04.23-.11.34-.17.2-.3.26-.27.1-.43.1c-.2,0-.36-.05-.49-.14s-.25-.21-.34-.35-.23-.35-.39-.62l-.7-1.16c-.25-.43-.47-.75-.67-.97s-.4-.38-.6-.46-.46-.12-.77-.12l.02-.02h0Zm1-3.61h-1.61v2.36h1.56c.42,0,.77-.04,1.05-.11s.5-.2.65-.37.23-.41.23-.72c0-.24-.06-.45-.18-.63s-.29-.32-.5-.41c-.2-.09-.6-.13-1.2-.13h0Z"/>
      <path class="cls-5" d="m410.76,150.93v3.01l3.42-3.56c.16-.17.3-.3.42-.38s.27-.12.46-.12c.25,0,.45.07.61.22s.23.33.23.54c0,.25-.13.51-.39.76l-2.12,2,2.44,3.49c.17.24.3.45.39.64s.13.36.13.53c0,.19-.08.36-.23.5s-.35.21-.61.21c-.24,0-.44-.05-.59-.16s-.28-.24-.39-.41-.2-.33-.28-.47l-2.06-3.16-1.42,1.37v1.78c0,.36-.08.63-.25.8s-.38.26-.63.26c-.15,0-.29-.04-.43-.12s-.24-.18-.32-.32c-.05-.11-.09-.24-.1-.38s-.02-.35-.02-.63v-6.39c0-.35.08-.62.23-.79s.36-.26.63-.26.47.09.64.26.24.44.24.79h0Z"/>
    </g>
    <g>
      <path class="cls-5" d="m460.84,136.62l1.95,5.76,1.95-5.8c.1-.3.18-.52.23-.64s.13-.23.25-.32.28-.14.48-.14c.15,0,.29.04.41.11s.23.17.3.3.11.25.11.37c0,.09-.01.18-.04.28s-.05.2-.09.29-.07.19-.11.3l-2.08,5.61c-.07.21-.15.42-.22.61s-.16.36-.26.51-.23.27-.39.36-.36.14-.59.14-.43-.05-.59-.14-.29-.21-.39-.36-.19-.32-.26-.51-.15-.39-.22-.61l-2.04-5.57c-.04-.1-.07-.2-.11-.3s-.07-.2-.09-.32-.04-.21-.04-.29c0-.2.08-.38.24-.54s.36-.25.6-.25c.3,0,.51.09.63.27s.25.47.38.87h-.01Z"/>
      <path class="cls-5" d="m469.98,136.66l-1.64,6.76c-.05.22-.1.4-.14.53s-.1.23-.19.3-.21.11-.37.11c-.4,0-.6-.17-.6-.52,0-.09.04-.31.12-.67l1.63-6.76c.09-.36.17-.61.25-.74s.23-.2.46-.2c.2,0,.34.05.45.14s.16.22.16.39c0,.12-.04.34-.12.66h0Z"/>
      <path class="cls-5" d="m477.72,141.63c0,.52-.13.99-.4,1.4s-.66.74-1.17.97-1.13.35-1.83.35c-.85,0-1.55-.16-2.1-.48-.39-.23-.71-.54-.95-.92s-.37-.76-.37-1.12c0-.21.07-.39.22-.54s.33-.23.56-.23c.18,0,.34.06.47.18s.24.29.33.52c.11.27.23.5.35.69s.31.33.54.45.53.18.91.18c.52,0,.93-.12,1.26-.36s.48-.54.48-.9c0-.29-.09-.52-.26-.69s-.4-.31-.67-.41-.64-.19-1.1-.3c-.62-.14-1.13-.31-1.55-.51s-.75-.46-.99-.79-.37-.75-.37-1.25.13-.89.39-1.26.63-.65,1.12-.85,1.06-.3,1.72-.3c.53,0,.98.07,1.37.2s.7.3.96.52.44.44.56.68.18.47.18.7c0,.21-.07.39-.22.56s-.33.25-.55.25c-.2,0-.35-.05-.45-.15s-.22-.26-.34-.49c-.16-.32-.34-.58-.56-.76s-.57-.27-1.05-.27c-.45,0-.81.1-1.09.3s-.41.43-.41.71c0,.17.05.32.14.45s.22.23.39.32.33.16.5.21.45.12.83.22c.48.11.92.24,1.32.38s.73.3,1,.5.49.44.64.74.23.67.23,1.1h-.04Z"/>
      <path class="cls-5" d="m463.1,151.36h-3.43v2.2h2.87c.27,0,.46.06.59.18s.2.28.2.48-.07.36-.2.47-.33.18-.59.18h-2.87v2.83c0,.36-.08.63-.24.8s-.37.26-.62.26-.47-.09-.63-.26-.24-.44-.24-.8v-6.61c0-.25.04-.45.11-.61s.19-.27.35-.35.36-.11.61-.11h4.1c.28,0,.48.06.62.18s.2.28.2.48-.07.37-.2.49-.34.18-.62.18h-.01Z"/>
      <path class="cls-5" d="m468.55,155.27h-1.59v2.43c0,.35-.08.61-.25.79s-.37.27-.62.27-.47-.09-.63-.27-.24-.44-.24-.78v-6.62c0-.38.09-.66.26-.82s.46-.25.84-.25h2.23c.66,0,1.17.05,1.52.15.35.1.66.26.91.49s.45.5.58.83.2.7.2,1.11c0,.88-.27,1.54-.81,1.99s-1.34.68-2.41.68h0Zm-.42-3.94h-1.17v2.62h1.17c.41,0,.75-.04,1.03-.13s.49-.23.63-.42.22-.45.22-.77c0-.38-.11-.69-.33-.93-.25-.25-.76-.38-1.54-.38h-.01Z"/>
      <path class="cls-5" d="m477.66,157.64l-.41-1.08h-3.49l-.41,1.1c-.16.43-.3.72-.41.87s-.3.23-.56.23c-.22,0-.41-.08-.58-.24s-.25-.34-.25-.54c0-.12.02-.24.06-.36s.1-.3.19-.52l2.2-5.58c.06-.16.14-.35.23-.58s.18-.41.28-.56.23-.27.39-.36.36-.14.6-.14.44.05.61.14.29.21.39.35.18.3.25.47.16.39.26.67l2.24,5.54c.18.42.26.73.26.92s-.08.38-.25.55-.37.25-.6.25c-.14,0-.25-.02-.35-.07s-.18-.12-.25-.2-.14-.21-.21-.39-.14-.33-.2-.46h0Zm-3.45-2.38h2.57l-1.29-3.54-1.27,3.54h-.01Z"/>
    </g>
    <g>
      <path class="cls-5" d="m774.08,155.67h-1.59v2.43c0,.35-.08.61-.25.79s-.37.27-.62.27-.47-.09-.63-.27-.24-.44-.24-.78v-6.62c0-.38.09-.66.26-.82s.46-.25.84-.25h2.23c.66,0,1.17.05,1.52.15.35.1.66.26.91.49s.45.5.58.83.2.7.2,1.11c0,.88-.27,1.54-.81,1.99s-1.34.68-2.41.68h0Zm-.42-3.94h-1.17v2.62h1.17c.41,0,.75-.04,1.03-.13s.49-.23.63-.42.22-.45.22-.77c0-.38-.11-.69-.33-.93-.25-.25-.76-.38-1.54-.38h-.01Z"/>
      <path class="cls-5" d="m778.77,155.46v-4.13c0-.35.08-.62.24-.79s.37-.26.62-.26.48.09.64.26.24.44.24.79v4.22c0,.48.05.88.16,1.2s.3.57.57.75.66.27,1.15.27c.68,0,1.16-.18,1.44-.54s.42-.91.42-1.64v-4.26c0-.36.08-.62.23-.79s.37-.26.63-.26.47.09.64.26.24.44.24.79v4.13c0,.67-.07,1.23-.2,1.68s-.38.84-.74,1.18c-.31.29-.68.5-1.09.63s-.9.2-1.45.2c-.66,0-1.23-.07-1.71-.21s-.87-.36-1.17-.66-.52-.68-.66-1.15-.21-1.02-.21-1.67h.01Z"/>
      <path class="cls-5" d="m794.4,156.43c0,.52-.13.99-.4,1.4s-.66.74-1.17.97-1.13.35-1.83.35c-.85,0-1.55-.16-2.1-.48-.39-.23-.71-.54-.95-.92s-.37-.76-.37-1.12c0-.21.07-.39.22-.54s.33-.23.56-.23c.18,0,.34.06.47.18s.24.29.33.52c.11.27.23.5.35.69s.31.33.54.45.53.18.91.18c.52,0,.93-.12,1.26-.36s.48-.54.48-.9c0-.29-.09-.52-.26-.69s-.4-.31-.67-.41-.64-.19-1.1-.3c-.62-.14-1.13-.31-1.55-.51s-.75-.46-.99-.79-.37-.75-.37-1.25.13-.89.39-1.26.63-.65,1.12-.85,1.06-.3,1.72-.3c.53,0,.98.07,1.37.2s.7.3.96.52.44.44.56.68.18.47.18.7c0,.21-.07.39-.22.56s-.33.25-.55.25c-.2,0-.35-.05-.45-.15s-.22-.26-.34-.49c-.16-.32-.34-.58-.56-.76s-.57-.27-1.05-.27c-.45,0-.81.1-1.09.3s-.41.43-.41.71c0,.17.05.32.14.45s.22.23.39.32.33.16.5.21.45.12.83.22c.48.11.92.24,1.32.38s.73.3,1,.5.49.44.64.74.23.67.23,1.1h-.04Z"/>
      <path class="cls-5" d="m797.63,151.33v2.46h3.76v-2.46c0-.35.08-.62.24-.79s.37-.26.62-.26.47.09.64.26.24.44.24.79v6.77c0,.36-.08.62-.25.8s-.38.26-.63.26-.47-.09-.63-.27-.23-.44-.23-.79v-2.89h-3.76v2.89c0,.36-.08.62-.25.8s-.38.26-.63.26-.47-.09-.63-.27-.23-.44-.23-.79v-6.77c0-.35.08-.62.23-.79s.36-.26.63-.26.47.09.64.26.24.44.24.79Z"/>
      <path class="cls-5" d="m785.03,166.26h-1.9v6.24c0,.36-.08.63-.24.8s-.37.26-.62.26-.47-.09-.63-.26-.24-.44-.24-.8v-6.24h-1.9c-.3,0-.52-.07-.66-.2s-.22-.3-.22-.52.08-.4.23-.53.37-.19.65-.19h5.53c.3,0,.52.07.67.2s.22.31.22.52-.07.39-.22.52-.37.2-.67.2h0Z"/>
      <path class="cls-5" d="m790.57,164.68c.89,0,1.66.18,2.29.54s1.12.88,1.45,1.54.49,1.45.49,2.35c0,.66-.09,1.27-.27,1.81s-.45,1.01-.81,1.41-.8.7-1.32.91-1.12.32-1.8.32-1.27-.11-1.8-.33-.97-.52-1.33-.92-.62-.87-.81-1.42-.27-1.15-.27-1.8.09-1.27.28-1.82.46-1.02.82-1.41.8-.68,1.31-.89,1.1-.31,1.76-.31v.02h.01Zm2.47,4.42c0-.63-.1-1.17-.3-1.63s-.49-.81-.87-1.05-.81-.35-1.3-.35c-.35,0-.67.07-.96.2s-.55.32-.76.57-.38.57-.5.96-.18.83-.18,1.31.06.93.18,1.32.3.72.52.98.48.45.77.58.61.19.96.19c.45,0,.85-.11,1.23-.33s.67-.57.89-1.03.33-1.04.33-1.72h-.01Z"/>
      <path class="cls-5" d="m770.2,180.13v6.25h3.53c.28,0,.5.07.65.21s.23.31.23.52-.07.38-.22.51-.37.2-.65.2h-4.2c-.38,0-.65-.08-.82-.25s-.25-.44-.25-.81v-6.62c0-.35.08-.62.24-.79s.37-.26.62-.26.47.09.64.26.24.44.24.79h-.01Z"/>
      <path class="cls-5" d="m781.4,180.56h-3.92v2.11h3.61c.27,0,.46.06.59.18s.2.28.2.47-.06.35-.19.48-.33.18-.6.18h-3.61v2.44h4.05c.27,0,.48.06.62.19s.21.3.21.51-.07.37-.21.5-.34.19-.62.19h-4.73c-.38,0-.65-.08-.82-.25s-.25-.44-.25-.81v-6.46c0-.25.04-.45.11-.61s.19-.27.35-.35.36-.11.61-.11h4.59c.28,0,.48.06.62.18s.2.28.2.48-.07.37-.2.49-.34.18-.62.18h0Z"/>
      <path class="cls-5" d="m785.01,180.22l1.95,5.76,1.95-5.8c.1-.3.18-.52.23-.64s.13-.23.25-.32.28-.14.48-.14c.15,0,.29.04.41.11s.23.17.3.3.11.25.11.37c0,.09-.01.18-.04.28s-.05.2-.09.29-.07.19-.11.3l-2.08,5.61c-.07.21-.15.42-.22.61s-.16.36-.26.51-.23.27-.39.36-.36.14-.59.14-.43-.05-.59-.14-.29-.21-.39-.36-.19-.32-.26-.51-.15-.39-.22-.61l-2.04-5.57c-.04-.1-.07-.2-.11-.3s-.07-.2-.09-.32-.04-.21-.04-.29c0-.2.08-.38.24-.54s.36-.25.6-.25c.3,0,.51.09.63.27s.25.47.38.87h0Z"/>
      <path class="cls-5" d="m797.66,180.56h-3.92v2.11h3.61c.27,0,.46.06.59.18s.2.28.2.47-.06.35-.19.48-.33.18-.6.18h-3.61v2.44h4.05c.27,0,.48.06.62.19s.21.3.21.51-.07.37-.21.5-.34.19-.62.19h-4.73c-.38,0-.65-.08-.82-.25s-.25-.44-.25-.81v-6.46c0-.25.04-.45.11-.61s.19-.27.35-.35.36-.11.61-.11h4.59c.28,0,.48.06.62.18s.2.28.2.48-.07.37-.2.49-.34.18-.62.18h0Z"/>
      <path class="cls-5" d="m801.71,180.13v6.25h3.53c.28,0,.5.07.65.21s.23.31.23.52-.07.38-.22.51-.37.2-.65.2h-4.2c-.38,0-.65-.08-.82-.25s-.25-.44-.25-.81v-6.62c0-.35.08-.62.24-.79s.37-.26.62-.26.47.09.64.26.24.44.24.79h-.01Z"/>
      <path class="cls-5" d="m779.65,193.48c.89,0,1.66.18,2.29.54s1.12.88,1.45,1.54.49,1.45.49,2.35c0,.66-.09,1.27-.27,1.81s-.45,1.01-.81,1.41-.8.7-1.32.91-1.12.32-1.8.32-1.27-.11-1.8-.33-.97-.52-1.33-.92-.62-.87-.81-1.42-.27-1.15-.27-1.8.09-1.27.28-1.82.46-1.02.82-1.41.8-.68,1.31-.89,1.1-.31,1.76-.31v.02h.01Zm2.47,4.42c0-.63-.1-1.17-.3-1.63s-.49-.81-.87-1.05-.81-.35-1.3-.35c-.35,0-.67.07-.96.2s-.55.32-.76.57-.38.57-.5.96-.18.83-.18,1.31.06.93.18,1.32.3.72.52.98.48.45.77.58.61.19.96.19c.45,0,.85-.11,1.23-.33s.67-.57.89-1.03.33-1.04.33-1.72h-.01Z"/>
      <path class="cls-5" d="m790.51,194.96h-3.43v2.2h2.87c.27,0,.46.06.59.18s.2.28.2.48-.07.36-.2.47-.33.18-.59.18h-2.87v2.83c0,.36-.08.63-.24.8s-.37.26-.62.26-.47-.09-.63-.26-.24-.44-.24-.8v-6.61c0-.25.04-.45.11-.61s.19-.27.35-.35.36-.11.61-.11h4.1c.28,0,.48.06.62.18s.2.28.2.48-.07.37-.2.49-.34.18-.62.18h0Z"/>
      <path class="cls-5" d="m797.76,194.96h-3.43v2.2h2.87c.27,0,.46.06.59.18s.2.28.2.48-.07.36-.2.47-.33.18-.59.18h-2.87v2.83c0,.36-.08.63-.24.8s-.37.26-.62.26-.47-.09-.63-.26-.24-.44-.24-.8v-6.61c0-.25.04-.45.11-.61s.19-.27.35-.35.36-.11.61-.11h4.1c.28,0,.48.06.62.18s.2.28.2.48-.07.37-.2.49-.34.18-.62.18h0Z"/>
    </g>
    <ellipse class="cls-4" cx="175.96" cy="175.36" rx="31.18" ry="31.58"/>
    <ellipse class="cls-4" cx="293.65" cy="175.07" rx="31.18" ry="31.58"/>
    <ellipse class="cls-4" cx="562.7" cy="175.13" rx="31.18" ry="31.58"/>
    <ellipse class="cls-4" cx="725.7" cy="174.12" rx="31.18" ry="31.58"/>
    <circle class="cls-4" cx="436.24" cy="146.18" r="15.59"/>
    <circle class="cls-4" cx="644.24" cy="146.18" r="15.59"/>
    <line class="cls-4" x1="540.09" y1="143.55" x2="545.59" y2="148.73"/>
    <line class="cls-4" x1="580.36" y1="149" x2="585.54" y2="143.51"/>
    <g>
      <path class="cls-5" d="m534.71,140.29v-5.33c-.99.76-1.66,1.14-2,1.14-.16,0-.31-.07-.44-.2s-.19-.28-.19-.45c0-.2.06-.35.19-.44s.35-.21.66-.36c.47-.22.85-.46,1.13-.7s.53-.52.75-.83.36-.49.43-.56.19-.11.38-.11c.21,0,.37.08.5.24s.19.38.19.66v6.71c0,.79-.27,1.18-.8,1.18-.24,0-.43-.08-.57-.24s-.22-.4-.22-.71h-.01Z"/>
      <path class="cls-5" d="m545.02,136.88c0,.64-.04,1.19-.12,1.65s-.22.88-.43,1.25c-.27.46-.61.82-1.03,1.07s-.89.38-1.41.38c-.59,0-1.13-.17-1.6-.5s-.83-.8-1.06-1.39c-.12-.32-.21-.68-.27-1.08s-.08-.82-.08-1.27c0-.59.03-1.12.09-1.59s.16-.88.29-1.22c.23-.56.57-.99,1-1.29s.96-.44,1.57-.44c.4,0,.77.07,1.1.2s.62.32.86.57.46.56.63.93c.3.64.45,1.56.45,2.74h.01Zm-1.61-.12c0-.71-.04-1.3-.13-1.75s-.23-.8-.43-1.03-.48-.35-.84-.35c-.52,0-.87.26-1.08.78s-.3,1.32-.3,2.4c0,.73.04,1.34.13,1.8s.23.82.43,1.06.48.36.83.36.64-.12.84-.38.35-.61.43-1.07.12-1.07.12-1.83h0Z"/>
      <path class="cls-5" d="m552.15,136.88c0,.64-.04,1.19-.12,1.65s-.22.88-.43,1.25c-.27.46-.61.82-1.03,1.07s-.89.38-1.41.38c-.59,0-1.13-.17-1.6-.5s-.83-.8-1.06-1.39c-.12-.32-.21-.68-.27-1.08s-.08-.82-.08-1.27c0-.59.03-1.12.09-1.59s.16-.88.29-1.22c.23-.56.57-.99,1-1.29s.96-.44,1.57-.44c.4,0,.77.07,1.1.2s.62.32.86.57.46.56.63.93c.3.64.45,1.56.45,2.74h.01Zm-1.61-.12c0-.71-.04-1.3-.13-1.75s-.23-.8-.43-1.03-.48-.35-.84-.35c-.52,0-.87.26-1.08.78s-.3,1.32-.3,2.4c0,.73.04,1.34.13,1.8s.23.82.43,1.06.48.36.83.36.64-.12.84-.38.35-.61.43-1.07.12-1.07.12-1.83h0Z"/>
    </g>
    <g>
      <path class="cls-5" d="m576.68,140.49v-5.33c-.99.76-1.66,1.14-2,1.14-.16,0-.31-.07-.44-.2s-.19-.28-.19-.45c0-.2.06-.35.19-.44s.35-.21.66-.36c.47-.22.85-.46,1.13-.7s.53-.52.75-.83.36-.49.43-.56.19-.11.38-.11c.21,0,.37.08.5.24s.19.38.19.66v6.71c0,.79-.27,1.18-.8,1.18-.24,0-.43-.08-.57-.24s-.22-.4-.22-.71h-.01Z"/>
      <path class="cls-5" d="m586.98,137.08c0,.64-.04,1.19-.12,1.65s-.22.88-.43,1.25c-.27.46-.61.82-1.03,1.07s-.89.38-1.41.38c-.59,0-1.13-.17-1.6-.5s-.83-.8-1.06-1.39c-.12-.32-.21-.68-.27-1.08s-.08-.82-.08-1.27c0-.59.03-1.12.09-1.59s.16-.88.29-1.22c.23-.56.57-.99,1-1.29s.96-.44,1.57-.44c.4,0,.77.07,1.1.2s.62.32.86.57.46.56.63.93c.3.64.45,1.56.45,2.74h.01Zm-1.61-.12c0-.71-.04-1.3-.13-1.75s-.23-.8-.43-1.03-.48-.35-.84-.35c-.52,0-.87.26-1.08.78s-.3,1.32-.3,2.4c0,.73.04,1.34.13,1.8s.23.82.43,1.06.48.36.83.36.64-.12.84-.38.35-.61.43-1.07.12-1.07.12-1.83h0Z"/>
      <path class="cls-5" d="m594.11,137.08c0,.64-.04,1.19-.12,1.65s-.22.88-.43,1.25c-.27.46-.61.82-1.03,1.07s-.89.38-1.41.38c-.59,0-1.13-.17-1.6-.5s-.83-.8-1.06-1.39c-.12-.32-.21-.68-.27-1.08s-.08-.82-.08-1.27c0-.59.03-1.12.09-1.59s.16-.88.29-1.22c.23-.56.57-.99,1-1.29s.96-.44,1.57-.44c.4,0,.77.07,1.1.2s.62.32.86.57.46.56.63.93c.3.64.45,1.56.45,2.74h.01Zm-1.61-.12c0-.71-.04-1.3-.13-1.75s-.23-.8-.43-1.03-.48-.35-.84-.35c-.52,0-.87.26-1.08.78s-.3,1.32-.3,2.4c0,.73.04,1.34.13,1.8s.23.82.43,1.06.48.36.83.36.64-.12.84-.38.35-.61.43-1.07.12-1.07.12-1.83h0Z"/>
      <path class="cls-5" d="m601.24,137.08c0,.64-.04,1.19-.12,1.65s-.22.88-.43,1.25c-.27.46-.61.82-1.03,1.07s-.89.38-1.41.38c-.59,0-1.13-.17-1.6-.5s-.83-.8-1.06-1.39c-.12-.32-.21-.68-.27-1.08s-.08-.82-.08-1.27c0-.59.03-1.12.09-1.59s.16-.88.29-1.22c.23-.56.57-.99,1-1.29s.96-.44,1.57-.44c.4,0,.77.07,1.1.2s.62.32.86.57.46.56.63.93c.3.64.45,1.56.45,2.74h.01Zm-1.61-.12c0-.71-.04-1.3-.13-1.75s-.23-.8-.43-1.03-.48-.35-.84-.35c-.52,0-.87.26-1.08.78s-.3,1.32-.3,2.4c0,.73.04,1.34.13,1.8s.23.82.43,1.06.48.36.83.36.64-.12.84-.38.35-.61.43-1.07.12-1.07.12-1.83h0Z"/>
    </g>
    <g>
      <path class="cls-5" d="m718.05,136.98v-4.13c0-.35.08-.62.24-.79s.37-.26.62-.26.48.09.64.26.24.44.24.79v4.22c0,.48.05.88.16,1.2s.3.57.57.75.66.27,1.15.27c.68,0,1.16-.18,1.44-.54s.42-.91.42-1.64v-4.26c0-.36.08-.62.23-.79s.37-.26.63-.26.47.09.64.26.24.44.24.79v4.13c0,.67-.07,1.23-.2,1.68s-.38.84-.74,1.18c-.31.29-.68.5-1.09.63s-.9.2-1.45.2c-.66,0-1.23-.07-1.71-.21s-.87-.36-1.17-.66-.52-.68-.66-1.15-.21-1.02-.21-1.67h.01Z"/>
      <path class="cls-5" d="m730.49,137.19h-1.59v2.43c0,.35-.08.61-.25.79s-.37.27-.62.27-.47-.09-.63-.27-.24-.44-.24-.78v-6.62c0-.38.09-.66.26-.82s.46-.25.84-.25h2.23c.66,0,1.17.05,1.52.15.35.1.66.26.91.49s.45.5.58.83.2.7.2,1.11c0,.88-.27,1.54-.81,1.99s-1.34.68-2.41.68h0Zm-.42-3.94h-1.17v2.62h1.17c.41,0,.75-.04,1.03-.13s.49-.23.63-.42.22-.45.22-.77c0-.38-.11-.69-.33-.93-.25-.25-.76-.38-1.54-.38h-.01Z"/>
    </g>
    <g>
      <path class="cls-5" d="m719.21,208.14h2.27c.59,0,1.1.05,1.52.16s.8.31,1.15.62c.89.77,1.34,1.93,1.34,3.49,0,.52-.04.99-.13,1.41s-.23.81-.42,1.15-.43.65-.72.92c-.23.21-.48.37-.76.5s-.57.21-.88.26-.67.08-1.06.08h-2.27c-.32,0-.55-.05-.71-.14s-.26-.23-.31-.4-.07-.4-.07-.68v-6.3c0-.38.08-.65.25-.81s.44-.25.81-.25h-.01Zm.67,1.38v5.83h1.32c.29,0,.52,0,.68-.02s.33-.05.51-.12.33-.15.46-.26c.58-.49.87-1.34.87-2.54,0-.85-.13-1.48-.38-1.9s-.57-.69-.95-.81-.83-.17-1.36-.17h-1.15Z"/>
      <path class="cls-5" d="m729.28,209.04l3.35,5.06v-5.11c0-.33.07-.58.21-.75s.33-.25.58-.25.45.08.59.25.22.42.22.75v6.76c0,.75-.31,1.13-.94,1.13-.16,0-.3-.02-.42-.07s-.24-.12-.35-.21-.21-.21-.3-.34-.19-.26-.28-.4l-3.26-5v5.03c0,.33-.08.58-.23.74s-.35.25-.59.25-.44-.08-.59-.25-.22-.42-.22-.74v-6.63c0-.28.03-.5.09-.66.07-.18.2-.32.37-.43s.36-.17.56-.17c.16,0,.29.03.4.08s.21.12.29.21.17.2.26.33.18.28.27.43h-.01Z"/>
    </g>
    <path class="cls-4" d="m688.19,166.78c2.15-10.44,8.8-19.21,17.8-24.16"/>
    <path class="cls-4" d="m709.09,207.14c-10.33-4.42-18.16-13.65-20.73-24.92"/>
    <polygon class="cls-5" points="706.7 141.7 704.71 141.7 706.7 143.66 706.7 141.7"/>
    <polygon class="cls-5" points="709.88 207.74 709.24 205.86 708.02 208.37 709.88 207.74"/>
    <path class="cls-1" d="m709.93,208.13l.02-.04"/>
  </g>
</svg>